<svg xmlns="http://www.w3.org/2000/svg" xmlns:svg="http://www.w3.org/2000/svg" id="svg23" width="16" height="16" version="1.1"><metadata id="metadata29"/><defs id="defs27"><linearGradient id="arrow-backing-6" x1="5.292" x2="-5.292" y1="5.292" y2="-5.292" gradientTransform="scale(0.75592895,1.3228757)" gradientUnits="userSpaceOnUse"><stop id="stop896" offset="0%" stop-color="#72c466"/><stop id="stop898" offset="100%" stop-color="#22601e"/></linearGradient><linearGradient id="arrow-center-7" x1="3.873" x2="-3.873" y1="3.873" y2="-3.873" gradientTransform="scale(0.64549722,1.5491933)" gradientUnits="userSpaceOnUse"><stop id="stop901" offset="0%" stop-color="#a7d69e"/><stop id="stop903" offset="100%" stop-color="#78bd72"/></linearGradient><linearGradient id="backing_delete" x1="-3.5" x2="3.5" y1="-3.5" y2="3.5" gradientUnits="userSpaceOnUse"><stop id="stop1006" offset="0%" stop-color="#c4581e"/><stop id="stop1008" offset="100%" stop-color="#b84503"/></linearGradient><linearGradient id="center_delete" x1="-2.5" x2="2.5" y1="-2.5" y2="2.5" gradientUnits="userSpaceOnUse"><stop id="stop1011" offset="0%" stop-color="#fed6b8"/><stop id="stop1013" offset="100%" stop-color="#dd6401"/></linearGradient><linearGradient id="backing" x1="-7.309" x2="7.309" y1="-7.58" y2="7.038" gradientTransform="scale(1.0827936,0.92353707)" gradientUnits="userSpaceOnUse"><stop id="stop1159" offset="0%" stop-color="#cdcdcd"/><stop id="stop1161" offset="100%" stop-color="#6e6e6e"/></linearGradient><linearGradient id="backing_delete-5" x1="-3.5" x2="3.5" y1="-3.5" y2="3.5" gradientUnits="userSpaceOnUse"><stop id="stop1175" offset="0%" stop-color="#c4581e"/><stop id="stop1177" offset="100%" stop-color="#b84503"/></linearGradient><linearGradient id="center_delete-6" x1="-2.5" x2="2.5" y1="-2.5" y2="2.5" gradientUnits="userSpaceOnUse"><stop id="stop1180" offset="0%" stop-color="#fed6b8"/><stop id="stop1182" offset="100%" stop-color="#dd6401"/></linearGradient></defs><title id="title2">Arrow Up</title><desc id="desc4">Arrow Up Top</desc><g id="icon" transform="matrix(0.76279069,0,0,0.76279069,3.9325189,6.3395348)"><defs id="defs16"><linearGradient id="arrow-backing" x1="-5.292" x2="5.292" y1="-5.292" y2="5.292" gradientTransform="scale(0.75592895,1.3228757)" gradientUnits="userSpaceOnUse"><stop id="stop6" offset="0%" stop-color="#72c466"/><stop id="stop8" offset="100%" stop-color="#22601e"/></linearGradient><linearGradient id="arrow-center" x1="-3.873" x2="3.873" y1="-3.873" y2="3.873" gradientTransform="scale(0.64549722,1.5491933)" gradientUnits="userSpaceOnUse"><stop id="stop11" offset="0%" stop-color="#a7d69e"/><stop id="stop13" offset="100%" stop-color="#78bd72"/></linearGradient></defs><path id="path18" d="m -2,-3 h -2 l 4,-4 4,4 H 2 V 7 h -4 z" style="fill:url(#arrow-backing)"/><path id="path20" d="M -1,-3.5 H -2.5 L 0,-6 2.5,-3.5 H 1 V 6 h -2 z" style="fill:url(#arrow-center)"/></g><g id="icon-3" transform="matrix(0.76279069,0,0,0.76279069,8.9488372,6.3395348)"><g id="g912" transform="scale(-1)"><defs id="defs906"><linearGradient id="linearGradient933" x1="1" x2="0" y1="1" y2="0"><stop id="stop929" offset="0%" stop-color="#72c466"/><stop id="stop931" offset="100%" stop-color="#22601e"/></linearGradient><linearGradient id="linearGradient939" x1="1" x2="0" y1="1" y2="0"><stop id="stop935" offset="0%" stop-color="#a7d69e"/><stop id="stop937" offset="100%" stop-color="#78bd72"/></linearGradient></defs><path style="fill:url(#arrow-backing-6)" id="path908" d="m -2,-3 h -2 l 4,-4 4,4 H 2 V 7 h -4 z"/><path style="fill:url(#arrow-center-7)" id="path910" d="M -1,-3.5 H -2.5 L 0,-6 2.5,-3.5 H 1 V 6 h -2 z"/></g></g><g id="delete" transform="translate(12.508475,12.474576)"><defs id="defs1016"><linearGradient id="linearGradient1041" x1="0" x2="1" y1="0" y2="1"><stop id="stop1037" offset="0%" stop-color="#c4581e"/><stop id="stop1039" offset="100%" stop-color="#b84503"/></linearGradient><linearGradient id="linearGradient1047" x1="0" x2="1" y1="0" y2="1"><stop id="stop1043" offset="0%" stop-color="#fed6b8"/><stop id="stop1045" offset="100%" stop-color="#dd6401"/></linearGradient></defs><circle id="back" cx="0" cy="0" r="3.5" style="fill:url(#backing_delete)"/><circle id="center-dot" cx="0" cy="0" r="2.5" style="fill:url(#center_delete)"/><path id="path1020" d="m -1.5,-0.5 h 3 v 1 h -3 z" style="fill:#fff"/></g></svg>