<svg xmlns="http://www.w3.org/2000/svg" xmlns:xlink="http://www.w3.org/1999/xlink" width="16" height="16"><linearGradient id="a" x1="0%" x2="100%" y1="0%" y2="0%"><stop offset="0" stop-color="red" stop-opacity="0"/><stop offset=".5" stop-color="red"/><stop offset="1" stop-color="red" stop-opacity="0"/></linearGradient><linearGradient id="b" x1="0%" x2="0%" y1="0%" y2="100%"><stop offset="0" stop-color="#fff" stop-opacity="0"/><stop offset="1" stop-color="#fff"/></linearGradient><linearGradient id="c" x1="0%" x2="100%" y1="0%" y2="0%"><stop offset="0" stop-color="#00f" stop-opacity="0"/><stop offset=".5" stop-color="#00f"/><stop offset="1" stop-color="#00f" stop-opacity="0"/></linearGradient><linearGradient id="d" x1="0%" x2="100%" y1="0%" y2="0%"><stop offset="0" stop-color="#0f0" stop-opacity="0"/><stop offset=".5" stop-color="#0f0"/><stop offset="1" stop-color="#0f0" stop-opacity="0"/></linearGradient><linearGradient id="e" x1="0%" x2="100%" y1="0%" y2="0%"><stop offset="0" stop-color="#ff0" stop-opacity="0"/><stop offset=".5" stop-color="#ff0"/><stop offset="1" stop-color="#ff0" stop-opacity="0"/></linearGradient><linearGradient id="f" x1="0%" x2="100%" y1="0%" y2="0%"><stop offset="0" stop-color="#0ff" stop-opacity="0"/><stop offset=".5" stop-color="#0ff"/><stop offset="1" stop-color="#0ff" stop-opacity="0"/></linearGradient><linearGradient id="g" x1="0%" x2="100%" y1="0%" y2="0%"><stop offset="0" stop-color="#f0f" stop-opacity="0"/><stop offset=".5" stop-color="#f0f"/><stop offset="1" stop-color="#f0f" stop-opacity="0"/></linearGradient><radialGradient id="h"><stop offset="0" stop-color="#fff" stop-opacity="0"/><stop offset=".8" stop-color="#fff" stop-opacity="0"/><stop offset="1" stop-color="#fff"/></radialGradient><mask id="i"><path fill="url(#b)" d="m0 0 6.062177 3.5a7 7 0 0 1 -12.124354 0z"/></mask><g transform="translate(8 8)"><circle r="6" fill="#fff"/><path fill="url(#e)" d="m0 0 6.062177 3.5a7 7 0 0 1 -12.124354 0z" mask="url(#i)" transform="matrix(-.8660254 -.5 .5 -.8660254 0 0)"/><path fill="url(#f)" d="m0 0 6.062177 3.5a7 7 0 0 1 -12.124354 0z" mask="url(#i)" transform="rotate(90)"/><path fill="url(#g)" d="m0 0 6.062177 3.5a7 7 0 0 1 -12.124354 0z" mask="url(#i)" transform="matrix(.8660254 -.5 .5 .8660254 0 0)"/><path fill="url(#a)" d="m0 0 6.062177 3.5a7 7 0 0 1 -12.124354 0z" mask="url(#i)" transform="rotate(-90)"/><path fill="url(#c)" d="m0 0 6.062177 3.5a7 7 0 0 1 -12.124354 0z" mask="url(#i)" transform="matrix(.8660254 .5 -.5 .8660254 0 0)"/><path fill="url(#d)" d="m0 0 6.062177 3.5a7 7 0 0 1 -12.124354 0z" mask="url(#i)" transform="matrix(-.8660254 .5 -.5 -.8660254 0 0)"/><circle r="6" fill="url(#h)"/></g></svg>