<svg xmlns="http://www.w3.org/2000/svg" xmlns:svg="http://www.w3.org/2000/svg" xmlns:xlink="http://www.w3.org/1999/xlink" id="svg74" width="16" height="16" version="1.1"><metadata id="metadata80"/><defs id="defs78"><linearGradient id="center" x1="4.743" x2="-4.743" y1="-6.325" y2="3.162" gradientTransform="scale(1.0540926,0.9486833)" gradientUnits="userSpaceOnUse"><stop id="stop1003" offset="0%" stop-color="#a0bedc"/><stop id="stop1005" offset="10%" stop-color="#b3d2f1"/><stop id="stop1007" offset="50%" stop-color="#d5e5fe"/></linearGradient><linearGradient id="corner" x1="2.951" x2="6.001" y1="-4.066" y2="-7.116" gradientTransform="scale(1.01653,0.98373875)" gradientUnits="userSpaceOnUse"><stop id="stop1010" offset="0%" stop-color="#cde6fc"/><stop id="stop1012" offset="100%" stop-color="#7db2e2"/></linearGradient><linearGradient id="backing" x1="-7.483" x2="7.483" y1="-7.483" y2="7.483" gradientTransform="scale(0.93541435,1.069045)" gradientUnits="userSpaceOnUse"><stop id="stop1015" offset="0%" stop-color="#4f8cc8"/><stop id="stop1017" offset="100%" stop-color="#2e62b7"/></linearGradient><linearGradient id="base" x1="-2.739" x2="2.739" y1="10.954" y2="5.477" gradientTransform="scale(1.8257419,0.54772256)" gradientUnits="userSpaceOnUse"><stop id="stop1020" offset="0%" stop-color="#68bffd"/><stop id="stop1022" offset="100%" stop-color="#4fb2f7"/></linearGradient><linearGradient id="base-center" x1="-1.414" x2="1.414" y1="14.142" y2="11.314" gradientTransform="scale(2.8284271,0.35355339)" gradientUnits="userSpaceOnUse"><stop id="stop1025" offset="0%" stop-color="#a0d8ff"/><stop id="stop1027" offset="100%" stop-color="#93d4ff"/></linearGradient><linearGradient id="line" x1="6.481" x2="-6.481" y1="-6.481" y2="6.481" gradientTransform="scale(0.9258201,1.0801234)" gradientUnits="userSpaceOnUse"><stop id="stop1030" offset="0%" stop-color="#fff"/><stop id="stop1032" offset="100%" stop-color="#eaf1f8"/></linearGradient><linearGradient id="backing_disk" x1="-6" x2="-6" y1="-5" y2="5" gradientUnits="userSpaceOnUse"><stop id="stop1051" offset="0%" stop-color="#6e97d4"/><stop id="stop1053" offset="100%" stop-color="#5884c3"/></linearGradient><linearGradient id="center_disk" x1="0%" x2="100%" y1="0%" y2="100%"><stop id="stop1056" offset="0%" stop-color="#b0cdf3"/><stop id="stop1058" offset="100%" stop-color="#85a2dd"/></linearGradient><linearGradient id="label_disk" x1="0%" x2="100%" y1="0%" y2="0%"><stop id="stop1061" offset="0%" stop-color="#a8d782"/><stop id="stop1063" offset="100%" stop-color="#d7f4a2"/></linearGradient><linearGradient id="linearGradient1196" x1="-5" x2="3" y1="-4" y2="4" gradientUnits="userSpaceOnUse" xlink:href="#center_disk"/><linearGradient id="linearGradient1198" x1="-4.243" x2="-2.828" y1="-2.828" y2="-1.414" gradientTransform="scale(0.70710678,1.4142136)" gradientUnits="userSpaceOnUse" xlink:href="#center_disk"/><linearGradient id="linearGradient1220" x1="-3" x2="-1" y1="2" y2="2" gradientUnits="userSpaceOnUse" xlink:href="#label_disk"/></defs><title id="title2">Package</title><desc id="desc4">Package Software</desc><g id="icon" transform="translate(8,8)"><defs id="defs51"><linearGradient id="backing-right" x1="0%" x2="100%" y1="0%" y2="100%"><stop id="stop6" offset="0%" stop-color="#d9b74f"/><stop id="stop8" offset="100%" stop-color="#c88e2c"/></linearGradient><linearGradient id="backing-left" x1="0%" x2="100%" y1="0%" y2="100%"><stop id="stop11" offset="0%" stop-color="#d7b04a"/><stop id="stop13" offset="100%" stop-color="#c58726"/></linearGradient><linearGradient id="inner-right" x1="0%" x2="100%" y1="0%" y2="100%"><stop id="stop16" offset="0%" stop-color="#fef8e1"/><stop id="stop18" offset="100%" stop-color="#e8e8e8"/></linearGradient><linearGradient id="inner-left" x1="0%" x2="100%" y1="0%" y2="100%"><stop id="stop21" offset="0%" stop-color="#f7e4b2"/><stop id="stop23" offset="100%" stop-color="#ecc483"/></linearGradient><linearGradient id="center-right" x1="0%" x2="100%" y1="0%" y2="100%"><stop id="stop26" offset="20%" stop-color="#fff3d4"/><stop id="stop28" offset="100%" stop-color="#fee094"/></linearGradient><linearGradient id="center-left" x1="0%" x2="100%" y1="0%" y2="100%"><stop id="stop31" offset="20%" stop-color="#efc748"/><stop id="stop33" offset="100%" stop-color="#de9f32"/></linearGradient><linearGradient id="top" x1="0%" x2="100%" y1="100%" y2="0%"><stop id="stop36" offset="0%" stop-color="#f7d589"/><stop id="stop38" offset="100%" stop-color="#f5cf7f"/></linearGradient><linearGradient id="lower-flap" x1="0%" x2="100%" y1="0%" y2="100%"><stop id="stop41" offset="0%" stop-color="#fef8e1" stop-opacity="1"/><stop id="stop43" offset="100%" stop-color="#fef8e1" stop-opacity="0"/></linearGradient><linearGradient id="upper-flap" x1="0%" x2="100%" y1="0%" y2="100%"><stop id="stop46" offset="0%" stop-color="#fef8e1" stop-opacity="0"/><stop id="stop48" offset="100%" stop-color="#fef8e1" stop-opacity="1"/></linearGradient></defs><path id="path53" fill="url(#backing-right)" d="M0,-8 l-8,4 v8 l8,4 z"/><path id="path55" fill="url(#backing-left)" d="M0,-8 l8,4 v8 l-8,4 z"/><path id="path57" fill="url(#inner-right)" d="M0,-7 l-7,3.5 v7 l7,3.5 z"/><path id="path59" fill="url(#inner-left)" d="M0,-7 l7,3.5 v7 l-7,3.5 z"/><path id="path61" fill="url(#center-right)" d="M-6,-2.5 v5.5 l6,3 v-5.5"/><path id="path63" fill="url(#center-left)" d="M6,-2.5 v5.5 l-6,3 v-5.5"/><path id="path65" fill="url(#top)" d="M-6,-3 l6,3 l6,-3 l-6,-3 l-6,3"/><path id="path67" fill="url(#lower-flap)" d="M0,0 v-3.5 h6.5"/><path id="path69" fill="url(#upper-flap)" d="M-6,-3 l6,-1 v-2"/><path id="path71" fill="#765219" d="M-6,-3 h5 l1,3 v-4 v-2 l1,2.5 h-1 v-0.5" opacity=".5"/></g><g id="icon-3" transform="translate(9,8)"><defs id="defs1035"><linearGradient id="linearGradient1127" x1="1" x2="0" y1="0" y2="1"><stop id="stop1121" offset="0%" stop-color="#a0bedc"/><stop id="stop1123" offset="10%" stop-color="#b3d2f1"/><stop id="stop1125" offset="50%" stop-color="#d5e5fe"/></linearGradient><linearGradient id="linearGradient1133" x1="0" x2="1" y1="1" y2="0"><stop id="stop1129" offset="0%" stop-color="#cde6fc"/><stop id="stop1131" offset="100%" stop-color="#7db2e2"/></linearGradient><linearGradient id="linearGradient1139" x1="0" x2="1" y1="0" y2="1"><stop id="stop1135" offset="0%" stop-color="#4f8cc8"/><stop id="stop1137" offset="100%" stop-color="#2e62b7"/></linearGradient><linearGradient id="linearGradient1145" x1="0" x2="1" y1="1" y2="0"><stop id="stop1141" offset="0%" stop-color="#68bffd"/><stop id="stop1143" offset="100%" stop-color="#4fb2f7"/></linearGradient><linearGradient id="linearGradient1151" x1="0" x2="1" y1="1" y2="0"><stop id="stop1147" offset="0%" stop-color="#a0d8ff"/><stop id="stop1149" offset="100%" stop-color="#93d4ff"/></linearGradient><linearGradient id="linearGradient1157" x1="1" x2="0" y1="0" y2="1"><stop id="stop1153" offset="0%" stop-color="#fff"/><stop id="stop1155" offset="100%" stop-color="#eaf1f8"/></linearGradient></defs><g id="save" transform="translate(3,3)"><defs id="defs1066"><linearGradient id="linearGradient1171" x1="0" x2="0" y1="0" y2="1"><stop id="stop1167" offset="0%" stop-color="#6e97d4"/><stop id="stop1169" offset="100%" stop-color="#5884c3"/></linearGradient><linearGradient id="linearGradient1177" x1="0" x2="1" y1="0" y2="1"><stop id="stop1173" offset="0%" stop-color="#b0cdf3"/><stop id="stop1175" offset="100%" stop-color="#85a2dd"/></linearGradient><linearGradient id="linearGradient1183" x1="0" x2="1" y1="0" y2="0"><stop id="stop1179" offset="0%" stop-color="#a8d782"/><stop id="stop1181" offset="100%" stop-color="#d7f4a2"/></linearGradient></defs><path id="path1068" d="m 0,-5 h -5 a 1,1 0 0 0 -1,1 v 8 a 1,1 0 0 0 1,1 H 3 A 1,1 0 0 0 4,4 V -3 L 2,-5 Z" style="fill:url(#backing_disk)"/><rect id="rect1070" width="8" height="8" x="-5" y="-4" style="fill:url(#linearGradient1196)"/><rect id="rect1072" width="6" height="3" x="-4" y="-4" style="fill:#fff"/><rect id="rect1074" width="1" height="2" x="-3" y="-4" style="fill:url(#linearGradient1198)"/><rect id="rect1076" width="6" height="3" x="-4" y="1" style="fill:#fff"/><rect id="label_disk_part" width="2" height="2" x="-3" y="2" style="fill:url(#linearGradient1220)"/><use id="use1079" width="100%" height="100%" x="0" y="0" transform="rotate(180,-1,3)" xlink:href="#label_disk_part"/><rect id="rect1081" width="10" height="6" x="-6" y="-3" style="opacity:.05;fill:#000"/></g></g></svg>