<svg xmlns="http://www.w3.org/2000/svg" xmlns:svg="http://www.w3.org/2000/svg" id="svg74" width="16" height="16" version="1.1"><metadata id="metadata80"/><defs id="defs78"><linearGradient id="selected" x1="-4.899" x2="0" y1="-2.449" y2="-2.449" gradientTransform="scale(1.2247449,0.81649658)" gradientUnits="userSpaceOnUse"><stop id="stop1263" offset="0%" stop-color="#6b8fc3"/><stop id="stop1265" offset="100%" stop-color="#7193c1"/></linearGradient><linearGradient id="selected-inner" x1="-3.536" x2="-.707" y1="-1.414" y2="-1.414" gradientTransform="scale(1.4142136,0.70710678)" gradientUnits="userSpaceOnUse"><stop id="stop1268" offset="0%" stop-color="#7298d9"/><stop id="stop1270" offset="100%" stop-color="#7ba1d6"/></linearGradient><linearGradient id="caret" x1="0" x2="4.975" y1="-2.563" y2="-2.563" gradientTransform="scale(0.60302269,1.6583124)" gradientUnits="userSpaceOnUse"><stop id="stop1273" offset="0%" stop-color="#6b6b6b"/><stop id="stop1275" offset="100%" stop-color="#6e6e6e"/></linearGradient></defs><title id="title2">Package</title><desc id="desc4">Package Software</desc><g id="icon" transform="translate(8,8)"><defs id="defs51"><linearGradient id="backing-right" x1="0%" x2="100%" y1="0%" y2="100%"><stop id="stop6" offset="0%" stop-color="#d9b74f"/><stop id="stop8" offset="100%" stop-color="#c88e2c"/></linearGradient><linearGradient id="backing-left" x1="0%" x2="100%" y1="0%" y2="100%"><stop id="stop11" offset="0%" stop-color="#d7b04a"/><stop id="stop13" offset="100%" stop-color="#c58726"/></linearGradient><linearGradient id="inner-right" x1="0%" x2="100%" y1="0%" y2="100%"><stop id="stop16" offset="0%" stop-color="#fef8e1"/><stop id="stop18" offset="100%" stop-color="#e8e8e8"/></linearGradient><linearGradient id="inner-left" x1="0%" x2="100%" y1="0%" y2="100%"><stop id="stop21" offset="0%" stop-color="#f7e4b2"/><stop id="stop23" offset="100%" stop-color="#ecc483"/></linearGradient><linearGradient id="center-right" x1="0%" x2="100%" y1="0%" y2="100%"><stop id="stop26" offset="20%" stop-color="#fff3d4"/><stop id="stop28" offset="100%" stop-color="#fee094"/></linearGradient><linearGradient id="center-left" x1="0%" x2="100%" y1="0%" y2="100%"><stop id="stop31" offset="20%" stop-color="#efc748"/><stop id="stop33" offset="100%" stop-color="#de9f32"/></linearGradient><linearGradient id="top" x1="0%" x2="100%" y1="100%" y2="0%"><stop id="stop36" offset="0%" stop-color="#f7d589"/><stop id="stop38" offset="100%" stop-color="#f5cf7f"/></linearGradient><linearGradient id="lower-flap" x1="0%" x2="100%" y1="0%" y2="100%"><stop id="stop41" offset="0%" stop-color="#fef8e1" stop-opacity="1"/><stop id="stop43" offset="100%" stop-color="#fef8e1" stop-opacity="0"/></linearGradient><linearGradient id="upper-flap" x1="0%" x2="100%" y1="0%" y2="100%"><stop id="stop46" offset="0%" stop-color="#fef8e1" stop-opacity="0"/><stop id="stop48" offset="100%" stop-color="#fef8e1" stop-opacity="1"/></linearGradient></defs><path id="path53" fill="url(#backing-right)" d="M0,-8 l-8,4 v8 l8,4 z"/><path id="path55" fill="url(#backing-left)" d="M0,-8 l8,4 v8 l-8,4 z"/><path id="path57" fill="url(#inner-right)" d="M0,-7 l-7,3.5 v7 l7,3.5 z"/><path id="path59" fill="url(#inner-left)" d="M0,-7 l7,3.5 v7 l-7,3.5 z"/><path id="path61" fill="url(#center-right)" d="M-6,-2.5 v5.5 l6,3 v-5.5"/><path id="path63" fill="url(#center-left)" d="M6,-2.5 v5.5 l-6,3 v-5.5"/><path id="path65" fill="url(#top)" d="M-6,-3 l6,3 l6,-3 l-6,-3 l-6,3"/><path id="path67" fill="url(#lower-flap)" d="M0,0 v-3.5 h6.5"/><path id="path69" fill="url(#upper-flap)" d="M-6,-3 l6,-1 v-2"/><path id="path71" fill="#765219" d="M-6,-3 h5 l1,3 v-4 v-2 l1,2.5 h-1 v-0.5" opacity=".5"/></g><g id="icon-3" transform="matrix(0.83410375,0,0,0.83410375,9.3703128,12.426297)"><defs id="defs1278"><linearGradient id="linearGradient1314" x1="0" x2="1" y1="0" y2="0"><stop id="stop1310" offset="0%" stop-color="#6b8fc3"/><stop id="stop1312" offset="100%" stop-color="#7193c1"/></linearGradient><linearGradient id="linearGradient1320" x1="0" x2="1" y1="0" y2="0"><stop id="stop1316" offset="0%" stop-color="#7298d9"/><stop id="stop1318" offset="100%" stop-color="#7ba1d6"/></linearGradient><linearGradient id="linearGradient1326" x1="0" x2="1" y1="0" y2="0"><stop id="stop1322" offset="0%" stop-color="#6b6b6b"/><stop id="stop1324" offset="100%" stop-color="#6e6e6e"/></linearGradient></defs><rect id="rect1280" width="16" height="8" x="-8" y="-4" style="fill:#c9c9c9"/><path id="path1282" d="M -7,-3 H 8 V 4 H -8 V 3 h 1 z" style="fill:#e8e8e8"/><rect id="rect1284" width="14" height="6" x="-7" y="-3" style="fill:#fff"/><rect id="rect1286" width="6" height="4" x="-6" y="-2" style="fill:url(#selected)"/><rect id="rect1288" width="4" height="2" x="-5" y="-1" style="fill:url(#selected-inner)"/><path id="path1290" d="m 0,-4 h 1 v 0.25 a 0.5,0.5 0 0 0 1,0 V -4 h 1 v 1 H 2 V 3 H 3 V 4 H 2 V 3.75 a 0.5,0.5 0 0 0 -1,0 h 0.25 -1 v -1 h 1 v -6 h -1 v -1 z" style="fill:url(#caret)"/></g></svg>