<svg xmlns="http://www.w3.org/2000/svg" xmlns:svg="http://www.w3.org/2000/svg" id="svg27" width="16" height="16" version="1.1"><metadata id="metadata33"/><defs id="defs31"><linearGradient id="backing-3" x1="-8" x2="8" y1="-8" y2="8" gradientUnits="userSpaceOnUse"><stop id="stop6-6" offset="0%" stop-color="#5face2"/><stop id="stop8-7" offset="50%" stop-color="#598fd4"/><stop id="stop10-5" offset="100%" stop-color="#335f94"/></linearGradient><linearGradient id="center-3" x1="4.528" x2="-4.528" y1="-5.301" y2="3.755" gradientTransform="scale(0.88345221,1.1319231)" gradientUnits="userSpaceOnUse"><stop id="stop13-5" offset="0%" stop-color="#dfedfd"/><stop id="stop15-6" offset="100%" stop-color="#bddaf8"/></linearGradient></defs><title id="title2">Script</title><desc id="desc4">Script</desc><g id="icon" transform="matrix(-0.7243482,0,0,0.7243482,5.7947853,5.842725)"><defs id="defs18"><linearGradient id="backing" x1="-8" x2="8" y1="-8" y2="8" gradientUnits="userSpaceOnUse"><stop id="stop6" offset="0%" stop-color="#5face2"/><stop id="stop8" offset="50%" stop-color="#598fd4"/><stop id="stop10" offset="100%" stop-color="#335f94"/></linearGradient><linearGradient id="center" x1="4.528" x2="-4.528" y1="-5.301" y2="3.755" gradientTransform="scale(0.88345221,1.1319231)" gradientUnits="userSpaceOnUse"><stop id="stop13" offset="0%" stop-color="#dfedfd"/><stop id="stop15" offset="100%" stop-color="#bddaf8"/></linearGradient></defs><path id="path20" d="m -3,-8 c 9,0 11,0 11,3 A 2,2 0 0 1 6,-3 C 6,6 5,8 3,8 -6,8 -8,8 -8,5 a 2,2 0 0 1 2,-2 c 0,-9 0,-11 3,-11" style="fill:url(#backing)"/><path id="path22" d="m -4,-7 c 9,0 11,0 11,2 A 1,1 0 0 1 6,-4 C 6,-5.5 6,-5.5 5,-5.5 5,5 4,7 3,7 -5,7 -7,7 -7,5 h 9.25 v 0.25 a 0.5,0.5 0 0 0 1,0 V 4 l -8,-0.25 c 0,-9 0,-11 2,-11" style="fill:#fff"/><path id="path24" d="m -3,-6 c 7,0 7,0 7,2 C 4,4 3,4 3,4.25 L -4,4 c 0,-10 0,-10 2,-10" style="fill:url(#center)"/></g><g id="icon-2" transform="matrix(-0.7243482,0,0,0.7243482,10.115223,10.199327)"><defs id="defs18-9"><linearGradient id="RESERVED_FOR_INKSCAPE_DUPLICATE_DEF_000000000" x1="-8" x2="8" y1="-8" y2="8" gradientUnits="userSpaceOnUse"><stop id="stop858" offset="0%" stop-color="#5face2"/><stop id="stop860" offset="50%" stop-color="#598fd4"/><stop id="stop862" offset="100%" stop-color="#335f94"/></linearGradient><linearGradient id="RESERVED_FOR_INKSCAPE_DUPLICATE_DEF_000000001" x1="4.528" x2="-4.528" y1="-5.301" y2="3.755" gradientTransform="scale(0.88345221,1.1319231)" gradientUnits="userSpaceOnUse"><stop id="stop866" offset="0%" stop-color="#dfedfd"/><stop id="stop868" offset="100%" stop-color="#bddaf8"/></linearGradient></defs><path id="path20-1" d="m -3,-8 c 9,0 11,0 11,3 A 2,2 0 0 1 6,-3 C 6,6 5,8 3,8 -6,8 -8,8 -8,5 a 2,2 0 0 1 2,-2 c 0,-9 0,-11 3,-11" style="fill:url(#backing-3)"/><path id="path22-2" d="m -4,-7 c 9,0 11,0 11,2 A 1,1 0 0 1 6,-4 C 6,-5.5 6,-5.5 5,-5.5 5,5 4,7 3,7 -5,7 -7,7 -7,5 h 9.25 v 0.25 a 0.5,0.5 0 0 0 1,0 V 4 l -8,-0.25 c 0,-9 0,-11 2,-11" style="fill:#fff"/><path id="path24-7" d="m -3,-6 c 7,0 7,0 7,2 C 4,4 3,4 3,4.25 L -4,4 c 0,-10 0,-10 2,-10" style="fill:url(#center-3)"/></g></svg>